<svg width="2048px" height="2048px" viewBox="0 0 2048 2048" xmlns="http://www.w3.org/2000/svg" xmlns:xlink="http://www.w3.org/1999/xlink"><path transform="translate(0,2048) scale(1,-1)" d= "M2048 1664L2048 1280Q2048 1263 2042.5 1246.5Q2037 1230 2028 1216Q2037 1202 2042.5 1185.5Q2048 1169 2048 1152L2048 896Q2048 879 2042.5 862.5Q2037 846 2028 832Q2037 818 2042.5 801.5Q2048 785 2048 768L2048 384Q2048 357 2038 334Q2028 311 2010.5 293.5Q1993 276 1970 266Q1947 256 1920 256L1792 256Q1792 229 1782 206Q1772 183 1754.5 165.5Q1737 148 1714 138Q1691 128 1664 128L1280 128L1280 0L0 224L0 1824L1280 2048L1280 1920L1664 1920Q1691 1920 1714 1910Q1737 1900 1754.5 1882.5Q1772 1865 1782 1842Q1792 1819 1792 1792L1920 1792Q1947 1792 1970 1782Q1993 1772 2010.5 1754.5Q2028 1737 2038 1714Q2048 1691 2048 1664ZM1039 496L1039 1553L813 1540L813 924Q813 918 813.5 912.5Q814 907 814 901Q810 906 807 912Q804 918 801 924L459 1520L240 1508L240 540L441 529L441 1122Q441 1131 441 1139.5Q441 1148 440 1157L806 509L1039 496ZM1920 384L1920 768L1792 768L1792 384L1920 384ZM1920 896L1920 1152L1792 1152L1792 896L1920 896ZM1920 1280L1920 1664L1664 1664L1664 1792L1280 1792L1280 1664L1536 1664L1536 1536L1280 1536L1280 1408L1536 1408L1536 1280L1280 1280L1280 1152L1536 1152L1536 1024L1280 1024L1280 896L1536 896L1536 768L1280 768L1280 640L1536 640L1536 512L1280 512L1280 256L1664 256L1664 1280L1920 1280Z"></path></svg>