<svg width="2048px" height="2048px" viewBox="0 0 2048 2048" xmlns="http://www.w3.org/2000/svg" xmlns:xlink="http://www.w3.org/1999/xlink"><path transform="translate(0,2048) scale(1,-1)" d= "M633 1328Q670 1328 697.5 1313Q725 1298 744.5 1272.5Q764 1247 776 1215Q788 1183 795.5 1148.5Q803 1114 805.5 1080.5Q808 1047 808 1019Q808 973 800.5 921Q793 869 773 824.5Q753 780 716.5 750.5Q680 721 622 721Q585 721 553 742Q520 764 499 796.5Q478 829 466 867.5Q454 906 449.5 946Q445 986 445 1023Q445 1067 453 1120Q461 1173 482 1219.5Q503 1266 539.5 1297Q576 1328 633 1328ZM1280 1664L1920 1664Q1947 1664 1970 1654Q1993 1644 2010.5 1626.5Q2028 1609 2038 1586Q2048 1563 2048 1536L2048 512Q2048 485 2038 462Q2028 439 2010.5 421.5Q1993 404 1970 394Q1947 384 1920 384L1280 384L1280 0L0 224L0 1824L1280 2048L1280 1664ZM643 496Q713 496 772 520.5Q831 545 877.5 587Q924 629 957.5 685.5Q991 742 1010 806Q1027 862 1033.5 918Q1040 974 1040 1032Q1040 1087 1034 1142.5Q1028 1198 1011 1251Q992 1313 960 1367.5Q928 1422 884 1463Q840 1504 783 1528Q726 1552 657 1552Q545 1552 466 1504Q387 1456 336.5 1379Q286 1302 263 1205.5Q240 1109 240 1012Q240 950 250 888Q260 826 281.5 769Q303 712 335.5 662Q368 612 413 575Q458 538 515 517Q572 496 643 496ZM1920 512L1920 1274L1514 875Q1497 860 1478 860Q1459 860 1442 875L1280 1035L1280 512L1920 512ZM1920 1493L1920 1536L1280 1536L1280 1254L1473 1064L1478 1062Q1482 1062 1484 1064L1920 1493Z"></path></svg>