<?xml version="1.0" encoding="utf-8"?>
<!-- Generator: Adobe Illustrator 18.0.0, SVG Export Plug-In . SVG Version: 6.00 Build 0)  -->
<!DOCTYPE svg PUBLIC "-//W3C//DTD SVG 1.1//EN" "http://www.w3.org/Graphics/SVG/1.1/DTD/svg11.dtd">
<svg version="1.1" xmlns="http://www.w3.org/2000/svg" xmlns:xlink="http://www.w3.org/1999/xlink" x="0px" y="0px"
	 width="32px" height="32px" viewBox="0 0 32 32" enable-background="new 0 0 32 32" focusable="false" xml:space="preserve">
<path fill="#010101" d="M24.5,11.8C26,10.7,27,9,27,7c0-3.3-2.7-6-6-6s-6,2.7-6,6c0,2,1,3.7,2.5,4.8c-1.6,0.8-2.8,2.1-3.6,3.6
	C12.7,14,11,13,9,13c-3.3,0-6,2.7-6,6c0,2,1,3.7,2.5,4.8C2.8,25.1,1,27.9,1,31h2c0-3.3,2.7-6,6-6s6,2.7,6,6h2c0-3.1-1.8-5.9-4.5-7.2
	C14,22.7,15,21,15,19c0-3.3,2.7-6,6-6s6,2.7,6,6h2C29,15.9,27.2,13.1,24.5,11.8z M9,23c-2.2,0-4-1.8-4-4s1.8-4,4-4s4,1.8,4,4
	S11.2,23,9,23z M17,7c0-2.2,1.8-4,4-4s4,1.8,4,4s-1.8,4-4,4S17,9.2,17,7z"/>
</svg>
