<svg width="2048px" height="2048px" viewBox="0 0 2048 2048" xmlns="http://www.w3.org/2000/svg" xmlns:xlink="http://www.w3.org/1999/xlink"><path transform="translate(0,2048) scale(1,-1)" d= "M1850 1104Q1896 1078 1932.5 1042Q1969 1006 1994.5 962.5Q2020 919 2034 869.5Q2048 820 2048 768L1920 768Q1920 821 1900 867.5Q1880 914 1845 949Q1810 984 1763.5 1004Q1717 1024 1664 1024Q1611 1024 1564.5 1004Q1518 984 1483 949Q1448 914 1428 867.5Q1408 821 1408 768Q1408 676 1367 595Q1326 514 1252 459Q1317 426 1369.5 377.5Q1422 329 1459 269.5Q1496 210 1516 141.5Q1536 73 1536 0L1408 0Q1408 79 1378 149Q1348 219 1295.5 271.5Q1243 324 1173 354Q1103 384 1024 384Q944 384 874.5 354Q805 324 752.5 271.5Q700 219 670 149Q640 79 640 0L512 0Q512 73 532 141.5Q552 210 589 269.5Q626 329 678.5 377.5Q731 426 796 459Q722 514 681 595Q640 676 640 768Q640 821 620 867.5Q600 914 565 949Q530 984 483.5 1004Q437 1024 384 1024Q331 1024 284.5 1004Q238 984 203 949Q168 914 148 867.5Q128 821 128 768L0 768Q0 820 14 869.5Q28 919 53.5 962.5Q79 1006 115.5 1042Q152 1078 198 1104Q165 1139 146.5 1185Q128 1231 128 1280Q128 1333 148 1379.5Q168 1426 203 1461Q238 1496 284.5 1516Q331 1536 384 1536Q437 1536 483.5 1516Q530 1496 565 1461Q600 1426 620 1379.5Q640 1333 640 1280Q640 1231 621.5 1185Q603 1139 570 1104Q652 1059 704 980Q731 1020 766 1052Q801 1084 842 1106Q883 1128 929.5 1140Q976 1152 1024 1152Q1072 1152 1118 1140Q1164 1128 1205.5 1106Q1247 1084 1282 1052Q1317 1020 1344 980Q1396 1059 1478 1104Q1445 1139 1426.5 1185Q1408 1231 1408 1280Q1408 1333 1428 1379.5Q1448 1426 1483 1461Q1518 1496 1564.5 1516Q1611 1536 1664 1536Q1717 1536 1763.5 1516Q1810 1496 1845 1461Q1880 1426 1900 1379.5Q1920 1333 1920 1280Q1920 1231 1901.5 1185Q1883 1139 1850 1104ZM256 1280Q256 1253 266 1230Q276 1207 293.5 1189.5Q311 1172 334 1162Q357 1152 384 1152Q411 1152 434 1162Q457 1172 474.5 1189.5Q492 1207 502 1230Q512 1253 512 1280Q512 1307 502 1330Q492 1353 474.5 1370.5Q457 1388 434 1398Q411 1408 384 1408Q357 1408 334 1398Q311 1388 293.5 1370.5Q276 1353 266 1330Q256 1307 256 1280ZM1024 512Q1077 512 1123.5 532Q1170 552 1205 587Q1240 622 1260 668.5Q1280 715 1280 768Q1280 821 1260 867.5Q1240 914 1205 949Q1170 984 1123.5 1004Q1077 1024 1024 1024Q971 1024 924.5 1004Q878 984 843 949Q808 914 788 867.5Q768 821 768 768Q768 715 788 668.5Q808 622 843 587Q878 552 924.5 532Q971 512 1024 512ZM1536 1280Q1536 1253 1546 1230Q1556 1207 1573.5 1189.5Q1591 1172 1614 1162Q1637 1152 1664 1152Q1691 1152 1714 1162Q1737 1172 1754.5 1189.5Q1772 1207 1782 1230Q1792 1253 1792 1280Q1792 1307 1782 1330Q1772 1353 1754.5 1370.5Q1737 1388 1714 1398Q1691 1408 1664 1408Q1637 1408 1614 1398Q1591 1388 1573.5 1370.5Q1556 1353 1546 1330Q1536 1307 1536 1280ZM1485 1965L1576 1875L1023 1321L713 1632L804 1722L1023 1502L1485 1965Z"></path></svg>